# AST/ASF file generated using VICON BodyLanguage
# -----------------------------------------------
:version 1.10
:name VICON
:units
  mass 1.0
  length 0.45
  angle deg
:documentation
   .ast/.asf automatically generated from VICON data using
   VICON BodyBuilder and BodyLanguage model FoxedUp or BRILLIANT.MOD
:root
   order TX TY TZ RX RY RZ
   axis XYZ
   position 0 0 0  
   orientation 0 0 0 
:bonedata
  begin
     id 1 
     name lhipjoint
     direction 0.606768 -0.715223 0.346827 
     length 2.41543 
     axis 0 0 0  XYZ
  end
  begin
     id 2 
     name lfemur
     direction 0.34202 -0.939693 0  
     length 7.2778  
     axis 0 0 20  XYZ
    dof rx ry rz
    limits (-160.0 20.0)
           (-70.0 70.0)
           (-60.0 70.0)
  end
  begin
     id 3 
     name ltibia
     direction 0.34202 -0.939693 0   
     length 7.61811   
     axis 0 0 20   XYZ
    dof rx
    limits (-10.0 170.0)
  end
  begin
     id 4 
     name lfoot
     direction 0.0823924 -0.226371 0.97055   
     length 2.33618   
     axis -90 7.62852e-016 20   XYZ
    dof rx rz
    limits (-45.0 90.0)
           (-70.0 20.0)
  end
  begin
     id 5 
     name ltoes
     direction 1.53554e-011 -4.21934e-011 1   
     length 1.17015   
     axis -90 7.62852e-016 20   XYZ
    dof rx
    limits (-90.0 20.0)
  end
  begin
     id 6 
     name rhipjoint
     direction -0.6077 -0.714582 0.346516   
     length 2.4176  
     axis 0 0 0  XYZ 
  end
  begin
     id 7 
     name rfemur
     direction -0.34202 -0.939693 0   
     length 7.28127   
     axis 0 0 -20   XYZ
    dof rx ry rz
    limits (-160.0 20.0)
           (-70.0 70.0)
           (-70.0 60.0)
  end
  begin
     id 8 
     name rtibia
     direction -0.34202 -0.939693 0   
     length 7.77648   
     axis 0 0 -20   XYZ
    dof rx
    limits (-10.0 170.0)
 end
 begin
     id 9 
     name rfoot
     direction -0.0809463 -0.222398 0.97159   
     length 2.37533  
     axis -90 -7.62852e-016 -20   XYZ
    dof rx rz
    limits (-45.0 90.0)
           (-20.0 70.0)
  end
  begin
     id 10 
     name rtoes
     direction -1.53568e-011 -4.21714e-011 1   
     length 1.18972   
     axis -90 -7.62852e-016 -20   XYZ
    dof rx
    limits (-90.0 20.0)
  end
  begin
     id 11 
     name lowerback
     direction 0.010968 0.991932 -0.126297   
     length 2.21698   
     axis 0 0 0   XYZ
    dof rx ry rz
    limits (-20.0 45.0)
           (-30.0 30.0)
           (-30.0 30.0)
  end
  begin
     id 12 
     name upperback
     direction 0.0167007 0.997503 -0.0686276   
     length 2.22371   
     axis 0 0 0   XYZ
    dof rx ry rz
    limits (-20.0 45.0)
           (-30.0 30.0)
           (-30.0 30.0)
  end
  begin
     id 13 
     name thorax
     direction 0.0111721 0.999885 -0.0102878   
     length 2.25242   
     axis 0 0 0   XYZ
    dof rx ry rz
    limits (-20.0 45.0)
           (-30.0 30.0)
           (-30.0 30.0)
  end
  begin
     id 14 
     name lowerneck
     direction -0.0120265 0.990428 0.137508   
     length 1.57674   
     axis 0 0 0   XYZ
    dof rx ry rz
    limits (-20.0 45.0)
           (-30.0 30.0)
           (-30.0 30.0)
  end
  begin
     id 15 
     name upperneck
     direction 0.0175669 0.998907 0.0433089   
     length 1.5618   
     axis 0 0 0   XYZ
    dof rx ry rz
    limits (-20.0 45.0)
           (-30.0 30.0)
           (-30.0 30.0)
  end
  begin
     id 16
     name head
     direction 0.00754609 0.99997 0.00185367  
     length 1.60579  
     axis 0 0 0   XYZ
    dof rx ry rz
    limits (-20.0 45.0)
           (-30.0 30.0)
           (-30.0 30.0)
  end
  begin
     id 17 
     name lclavicle
     direction 0.885866 0.429166 -0.176231  
     length 3.44967  
     axis 0 0 0   XYZ
    dof ry rz
    limits (-20.0 10.0)
           (0.0 20.0)
  end
  begin
     id 18 
     name lhumerus
     direction 1 -4.48973e-011 -1.90255e-027   
     length 5.20607   
     axis 180 -30 -90   XYZ
    dof rx ry rz
    limits (-60.0 90.0)
           (-90.0 90.0)
           (-90.0 90.0)
  end
  begin
     id 19
     name lradius
     direction 1 -4.48956e-011 9.87925e-027   
     length 3.39961   
     axis 180 -30 -90   XYZ
    dof rx
    limits (-10.0 170.0)
  end
  begin
     id 20
     name lwrist
     direction 1 -4.48985e-011 1.73247e-026   
     length 1.6998   
     axis -9.60847e-015 90 90   XYZ
    dof ry
    limits (-180.0 0.0)
 end
  begin
     id 21 
     name lhand
     direction 1 -4.48798e-011 3.46119e-026   
     length 0.519693   
     axis -2.21073e-014 90 90   XYZ
    dof rx rz
    limits (-90.0 90.0)
           (-45.0 45.0)
  end
  begin
     id 22 
     name lfingers
     direction 1 -4.48938e-011 6.92797e-026   
     length 0.41899   
     axis -4.42155e-014 90 90   XYZ
    dof rx
    limits (0.0 90.0)
  end
  begin
     id 23
     name lthumb
     direction 0.707107 -6.34952e-011 0.707107   
     length 0.601588   
     axis -90 45 6.0103e-014   XYZ
    dof rx rz
    limits (-45.0 45.0)
           (-45.0 45.0)
  end
  begin
     id 24 
     name rclavicle
     direction -0.866736 0.456792 -0.200276   
     length 3.45032  
     axis 0 0 0   XYZ 
    dof ry rz
    limits (-10.0 20.0)
           (-20.0 0.0)
  end
  begin
     id 25 
     name rhumerus
     direction -1 -4.4897e-011 8.65094e-028  
     length 5.32214   
     axis 180 30 90   XYZ
    dof rx ry rz
    limits (-90.0 60.0)
           (-90.0 90.0)
           (-90.0 90.0)
  end
  begin
     id 26 
     name rradius
     direction -1 -4.48987e-011 1.08427e-026   
     length 3.51208   
     axis 180 30 90   XYZ
    dof rx
    limits (-10.0 170.0)
  end
  begin
     id 27 
     name rwrist
     direction -1 -4.48961e-011 1.73222e-026   
     length 1.75604   
     axis -9.60847e-015 -90 -90   XYZ
    dof ry
    limits (-180.0 0.0)
  end
  begin
     id 28
     name rhand
     direction -1 -4.48895e-011 3.46314e-026   
     length 0.586681   
     axis -2.21073e-014 -90 -90   XYZ
    dof rx rz
    limits (-90.0 90.0)
           (-45.0 45.0)
  end
  begin
     id 29
     name rfingers
     direction -1 -4.48968e-011 6.92916e-026   
     length 0.472997   
     axis -4.42155e-014 -90 -90   XYZ
    dof rx
    limits (0.0 90.0)
  end
  begin
     id 30
     name rthumb
     direction -0.707107 -6.34848e-011 0.707107   
     length 0.679133   
     axis -90 -45 -6.0103e-014   XYZ
    dof rx rz
    limits (-45.0 45.0)
           (-45.0 45.0)
  end
:hierarchy
  begin
    root lhipjoint rhipjoint lowerback
    lhipjoint lfemur
    lfemur ltibia
    ltibia lfoot
    lfoot ltoes
    rhipjoint rfemur
    rfemur rtibia
    rtibia rfoot
    rfoot rtoes
    lowerback upperback
    upperback thorax
    thorax lowerneck lclavicle rclavicle
    lowerneck upperneck
    upperneck head
    lclavicle lhumerus
    lhumerus lradius
    lradius lwrist
    lwrist lhand lthumb
    lhand lfingers
    rclavicle rhumerus
    rhumerus rradius
    rradius rwrist
    rwrist rhand rthumb
    rhand rfingers
  end

#!OML:ASF H:\Dans Jumps\Project 1\Capture day 1\Session 1\subject.ASF
:FULLY-SPECIFIED
:DEGREES
20
root 0.51403 17.5721 -13.8165 5.32416 -1.78764 -1.78028
lowerback -2.72391 -0.307236 0.32608
upperback 2.4149 -0.485111 1.61507
thorax 4.02657 -0.257233 1.45232
lowerneck -13.8656 0.248369 -2.19151
upperneck 29.8531 0.693375 0.80386
head 12.1007 0.159765 0.779797
rclavicle -1.79403e-014 7.35503e-015
rhumerus -27.8406 -17.7039 -78.1757
rradius 24.0772
rwrist 31.524
rhand -19.471 -26.5221
rfingers 7.12502
rthumb 6.85047 -56.3912
lclavicle -1.79403e-014 7.35503e-015
lhumerus -25.037 3.64655 86.3329
lradius 16.5879
lwrist 2.03679
lhand -25.4295 -3.85693
lfingers 7.12502
lthumb 1.09676 26.12
rfemur -11.1335 -2.36558 20.0659
rtibia 19.5413
rfoot -13.0736 -1.626
rtoes 10.9028
lfemur -9.762 6.30156 -17.6078
ltibia 17.681
lfoot -10.8495 4.48046
ltoes -0.00122641
21
root 0.513821 17.5722 -13.8174 5.32412 -1.78117 -1.77529
lowerback -2.71636 -0.309419 0.321928
upperback 2.40868 -0.487708 1.61708
thorax 4.01596 -0.258638 1.45659
lowerneck -13.8601 0.252195 -2.19267
upperneck 29.8582 0.699372 0.803035
head 12.1015 0.162171 0.780558
rclavicle 3.8763e-015 1.07344e-014
rhumerus -27.829 -17.6953 -78.1671
rradius 24.0698
rwrist 31.5373
rhand -19.4903 -26.5148
rfingers 7.12502
rthumb 6.83188 -56.3846
lclavicle 3.8763e-015 1.07344e-014
lhumerus -25.0227 3.67706 86.2985
lradius 16.59
lwrist 2.01994
lhand -25.4192 -3.84882
lfingers 7.12502
lthumb 1.10665 26.1281
rfemur -11.1394 -2.37888 20.0616
rtibia 19.5474
rfoot -13.0748 -1.6209
rtoes 10.8897
lfemur -9.76402 6.30025 -17.6126
ltibia 17.6783
lfoot -10.8498 4.47429
ltoes -0.00291572
22
root 0.513565 17.5722 -13.8183 5.32217 -1.77466 -1.77104
lowerback -2.70734 -0.311688 0.318087
upperback 2.40431 -0.490464 1.6196
thorax 4.00643 -0.260128 1.4612
lowerneck -13.856 0.255855 -2.19675
upperneck 29.8596 0.705102 0.804939
head 12.1011 0.164515 0.782789
rclavicle 1.98785e-015 9.34288e-015
rhumerus -27.8153 -17.6865 -78.1587
rradius 24.0635
rwrist 31.5459
rhand -19.5152 -26.4996
rfingers 7.12502
rthumb 6.80783 -56.3701
lclavicle 1.98785e-015 9.34288e-015
lhumerus -25.0087 3.70245 86.2677
lradius 16.5954
lwrist 2.00697
lhand -25.4096 -3.8243
lfingers 7.12502
lthumb 1.11599 26.1525
rfemur -11.1429 -2.38942 20.0583
rtibia 19.5538
rfoot -13.0757 -1.61957
rtoes 10.8686
lfemur -9.76434 6.3016 -17.6162
ltibia 17.6759
lfoot -10.8506 4.46511
ltoes -0.0055187
23
root 0.513323 17.5723 -13.819 5.31992 -1.76826 -1.76657
lowerback -2.69868 -0.313934 0.314832
upperback 2.40014 -0.493223 1.62208
thorax 3.99732 -0.261603 1.46544
lowerneck -13.8557 0.259607 -2.20016
upperneck 29.8634 0.711135 0.806093
head 12.1024 0.166948 0.784705
rclavicle 3.47873e-016 1.61016e-014
rhumerus -27.8027 -17.6804 -78.1487
rradius 24.0568
rwrist 31.556
rhand -19.5417 -26.4787
rfingers 7.12502
rthumb 6.78221 -56.3501
lclavicle 3.47873e-016 1.61016e-014
lhumerus -24.998 3.72696 86.2392
lradius 16.6024
lwrist 1.99077
lhand -25.4113 -3.80838
lfingers 7.12502
lthumb 1.11432 26.1685
rfemur -11.1456 -2.39663 20.0545
rtibia 19.5606
rfoot -13.077 -1.62049
rtoes 10.8542
lfemur -9.76466 6.30395 -17.6201
ltibia 17.674
lfoot -10.8516 4.45447
ltoes -0.00598468
24
root 0.513059 17.5723 -13.8198 5.3176 -1.75985 -1.76443
lowerback -2.68926 -0.316477 0.314601
upperback 2.39588 -0.49651 1.62467
thorax 3.98767 -0.263254 1.46808
lowerneck -13.8558 0.262897 -2.20298
upperneck 29.8668 0.716086 0.808065
head 12.1037 0.169076 0.78667
rclavicle -1.49089e-016 3.18055e-015
rhumerus -27.7927 -17.6753 -78.1392
rradius 24.054
rwrist 31.5594
rhand -19.563 -26.4657
rfingers 7.12502
rthumb 6.76167 -56.3377
lclavicle -1.49089e-016 3.18055e-015
lhumerus -24.9876 3.74994 86.2118
lradius 16.6059
lwrist 1.97128
lhand -25.4337 -3.81978
lfingers 7.12502
lthumb 1.09266 26.1572
rfemur -11.148 -2.4026 20.0535
rtibia 19.5678
rfoot -13.0787 -1.62306
rtoes 10.8476
lfemur -9.76578 6.3076 -17.6212
ltibia 17.6726
lfoot -10.8525 4.44066
ltoes 6.22754e-006
25
root 0.512866 17.5722 -13.8203 5.31404 -1.74769 -1.76122
lowerback -2.68134 -0.320071 0.314981
upperback 2.39287 -0.501238 1.62651
thorax 3.98019 -0.265601 1.4695
lowerneck -13.8569 0.265416 -2.20379
upperneck 29.8694 0.719737 0.808939
head 12.1049 0.170717 0.787688
rclavicle 4.02539e-015 -6.55989e-015
rhumerus -27.7835 -17.6714 -78.1298
rradius 24.0528
rwrist 31.5578
rhand -19.5785 -26.4601
rfingers 7.12502
rthumb 6.74672 -56.3326
lclavicle 4.02539e-015 -6.55989e-015
lhumerus -24.9762 3.77121 86.186
lradius 16.6062
lwrist 1.94822
lhand -25.4672 -3.8452
lfingers 7.12502
lthumb 1.06029 26.1319
rfemur -11.1477 -2.4128 20.0512
rtibia 19.5748
rfoot -13.0814 -1.62511
rtoes 10.8416
lfemur -9.76625 6.30796 -17.6236
ltibia 17.6724
lfoot -10.8525 4.42851
ltoes -0.00525878
26
root 0.512658 17.5722 -13.8209 5.3102 -1.73219 -1.75845
lowerback -2.67345 -0.324704 0.315251
upperback 2.39008 -0.50737 1.62884
thorax 3.97299 -0.268658 1.4714
lowerneck -13.8603 0.267613 -2.20123
upperneck 29.8739 0.723077 0.806561
head 12.1073 0.172162 0.78688
rclavicle 1.59028e-015 -1.80894e-014
rhumerus -27.774 -17.6697 -78.1192
rradius 24.0504
rwrist 31.5563
rhand -19.587 -26.4626
rfingers 7.12502
rthumb 6.73856 -56.3353
lclavicle 1.59028e-015 -1.80894e-014
lhumerus -24.9639 3.7929 86.162
lradius 16.6023
lwrist 1.91909
lhand -25.5074 -3.87747
lfingers 7.12502
lthumb 1.0215 26.0998
rfemur -11.1461 -2.42376 20.0495
rtibia 19.5812
rfoot -13.0844 -1.62734
rtoes 10.8533
lfemur -9.76792 6.30467 -17.6253
ltibia 17.6744
lfoot -10.8526 4.41724
ltoes -0.00778985
27
root 0.512427 17.5721 -13.8214 5.30613 -1.71532 -1.75731
lowerback -2.66673 -0.329305 0.316441
upperback 2.38809 -0.513564 1.63209
thorax 3.96729 -0.271739 1.47374
lowerneck -13.8658 0.268791 -2.19814
upperneck 29.8798 0.725317 0.802732
head 12.1109 0.172978 0.785303
rclavicle 1.2921e-015 -1.51076e-014
rhumerus -27.7642 -17.6665 -78.1082
rradius 24.0492
rwrist 31.5514
rhand -19.5954 -26.466
rfingers 7.12502
rthumb 6.73041 -56.3391
lclavicle 1.2921e-015 -1.51076e-014
lhumerus -24.9489 3.81012 86.1418
lradius 16.5948
lwrist 1.89066
lhand -25.539 -3.89919
lfingers 7.12502
lthumb 0.990995 26.0783
rfemur -11.1431 -2.43538 20.0495
rtibia 19.5865
rfoot -13.0873 -1.63014
rtoes 10.8689
lfemur -9.77027 6.29746 -17.6251
ltibia 17.6791
lfoot -10.8537 4.41
ltoes -0.0160301
28
root 0.512191 17.5719 -13.8218 5.30254 -1.69906 -1.75732
lowerback -2.6609 -0.332899 0.318225
upperback 2.38588 -0.518462 1.63582
thorax 3.96184 -0.274166 1.47631
lowerneck -13.8701 0.268862 -2.1961
upperneck 29.886 0.726086 0.799354
head 12.1143 0.17308 0.783863
rclavicle 6.01324e-015 6.75868e-015
rhumerus -27.755 -17.6631 -78.0959
rradius 24.0478
rwrist 31.5486
rhand -19.5954 -26.4771
rfingers 7.12502
rthumb 6.73045 -56.3502
lclavicle 6.01324e-015 6.75868e-015
lhumerus -24.9331 3.82124 86.1255
lradius 16.5851
lwrist 1.86371
lhand -25.5606 -3.90907
lfingers 7.12502
lthumb 0.970132 26.0685
rfemur -11.14 -2.44657 20.0506
rtibia 19.5904
rfoot -13.0892 -1.63261
rtoes 10.8881
lfemur -9.77445 6.28715 -17.6238
ltibia 17.6873
lfoot -10.8551 4.40779
ltoes -0.0308151
29
root 0.511945 17.5718 -13.8223 5.29989 -1.68403 -1.76033
lowerback -2.65393 -0.336182 0.321639
upperback 2.3817 -0.523039 1.64141
thorax 3.95369 -0.276405 1.47992
lowerneck -13.872 0.268484 -2.19745
upperneck 29.8932 0.726729 0.797091
head 12.1175 0.172877 0.783409
rclavicle -3.62782e-015 -1.0138e-014
rhumerus -27.7473 -17.6561 -78.082
rradius 24.045
rwrist 31.5469
rhand -19.5905 -26.4887
rfingers 7.12502
rthumb 6.73512 -56.3616
lclavicle -3.62782e-015 -1.0138e-014
lhumerus -24.9212 3.82671 86.1139
lradius 16.5762
lwrist 1.84331
lhand -25.5699 -3.91798
lfingers 7.12502
lthumb 0.961149 26.0596
rfemur -11.1375 -2.4559 20.0549
rtibia 19.5929
rfoot -13.0909 -1.63443
rtoes 10.9193
lfemur -9.78116 6.27631 -17.6193
ltibia 17.6991
lfoot -10.8583 4.40719
ltoes -0.0399016
30
root 0.511678 17.5715 -13.8227 5.29643 -1.67069 -1.76433
lowerback -2.64668 -0.339112 0.325206
upperback 2.37784 -0.527177 1.64773
thorax 3.94573 -0.278434 1.4842
lowerneck -13.8722 0.266304 -2.20531
upperneck 29.8987 0.724952 0.799769
head 12.1198 0.171508 0.785573
rclavicle -3.42904e-015 -1.43125e-014
rhumerus -27.7394 -17.6462 -78.0684
rradius 24.0426
rwrist 31.5485
rhand -19.5821 -26.4983
rfingers 7.12502
rthumb 6.74329 -56.3709
lclavicle -3.42904e-015 -1.43125e-014
lhumerus -24.9118 3.83157 86.1044
lradius 16.5697
lwrist 1.82442
lhand -25.5633 -3.91291
lfingers 7.12502
lthumb 0.967508 26.0646
rfemur -11.1341 -2.46469 20.0603
rtibia 19.5948
rfoot -13.0926 -1.63635
rtoes 10.948
lfemur -9.78779 6.26586 -17.6137
ltibia 17.7138
lfoot -10.8623 4.40802
ltoes -0.0507337
31
root 0.511404 17.5712 -13.8229 5.29253 -1.6608 -1.76863
lowerback -2.64024 -0.341109 0.329218
upperback 2.37428 -0.530095 1.65383
thorax 3.93848 -0.279843 1.4881
lowerneck -13.8724 0.263645 -2.21561
upperneck 29.9043 0.722301 0.805164
head 12.1221 0.169819 0.789059
rclavicle -3.13086e-015 -2.98177e-015
rhumerus -27.7314 -17.6363 -78.0549
rradius 24.0391
rwrist 31.5539
rhand -19.57 -26.4998
rfingers 7.12502
rthumb 6.75496 -56.3721
lclavicle -3.13086e-015 -2.98177e-015
lhumerus -24.9048 3.82423 86.0996
lradius 16.5651
lwrist 1.81915
lhand -25.5538 -3.91789
lfingers 7.12502
lthumb 0.976689 26.0596
rfemur -11.1302 -2.47154 20.0658
rtibia 19.5962
rfoot -13.0957 -1.63665
rtoes 10.9732
lfemur -9.79441 6.25643 -17.6078
ltibia 17.7309
lfoot -10.8667 4.4117
ltoes -0.0666397
